<?xml version="1.0" standalone="no"?>
<!DOCTYPE svg PUBLIC "-//W3C//DTD SVG 20010904//EN"
 "http://www.w3.org/TR/2001/REC-SVG-20010904/DTD/svg10.dtd">
<svg version="1.0" xmlns="http://www.w3.org/2000/svg"
 width="768.000000pt" height="768.000000pt" viewBox="0 0 768.000000 768.000000"
 preserveAspectRatio="xMidYMid meet">

<g transform="translate(0.000000,768.000000) scale(0.100000,-0.100000)"
fill="#000000" stroke="none">
<path d="M3605 7674 c-22 -2 -92 -9 -155 -15 -678 -63 -1361 -333 -1925 -758
-197 -148 -418 -355 -584 -546 -1016 -1169 -1229 -2836 -540 -4217 189 -379
402 -678 703 -986 748 -764 1774 -1179 2836 -1149 468 14 881 97 1305 264 691
272 1309 760 1739 1372 684 975 875 2205 520 3351 -107 344 -298 733 -511
1039 -186 266 -502 607 -737 794 -590 469 -1240 743 -1981 833 -122 14 -579
27 -670 18z m620 -339 c428 -48 812 -162 1196 -356 1024 -517 1733 -1499 1899
-2632 146 -989 -142 -2000 -787 -2766 -49 -57 -93 -106 -99 -108 -7 -2 -14 18
-19 54 -11 89 -73 326 -117 448 -56 156 -173 389 -266 530 -316 482 -749 830
-1284 1031 l-128 48 67 43 c243 160 446 393 563 648 353 765 37 1671 -715
2047 -501 252 -1087 214 -1560 -100 -634 -420 -865 -1244 -546 -1947 106 -232
314 -477 533 -626 l97 -66 -127 -48 c-749 -282 -1322 -876 -1571 -1627 -41
-123 -85 -301 -97 -391 -4 -28 -11 -46 -18 -44 -18 6 -180 203 -267 324 -309
433 -514 925 -603 1444 -39 225 -50 357 -50 599 0 461 76 867 241 1285 462
1174 1523 2014 2771 2195 287 41 603 47 887 15z m-201 -1186 c251 -33 495
-157 686 -349 239 -239 360 -531 360 -871 0 -197 -37 -363 -120 -534 -162
-333 -449 -565 -819 -662 -129 -34 -354 -43 -488 -19 -498 87 -871 432 -1000
925 -35 133 -43 346 -18 491 60 363 269 670 584 860 244 146 514 199 815 159z
m126 -2795 c550 -71 1082 -364 1442 -794 313 -373 489 -808 533 -1317 l6 -72
-100 -79 c-204 -163 -386 -279 -620 -396 -737 -369 -1560 -466 -2371 -280
-503 116 -980 348 -1397 681 l-93 74 5 67 c19 217 51 377 111 562 266 826 995
1433 1864 1555 137 19 471 19 620 -1z"/>
</g>
</svg>
